<svg width="22" height="21" viewBox="0 0 22 21" fill="none" xmlns="http://www.w3.org/2000/svg">
<g id="icon">
<g id="noun-shoes-2838180">
<path id="Path 899" fill-rule="evenodd" clip-rule="evenodd" d="M2.56728 10.1122C2.53719 10.1964 2.53185 10.2876 2.55191 10.3746C2.57197 10.4616 2.61656 10.5408 2.68029 10.6024C2.74401 10.6641 2.82413 10.7056 2.91094 10.722C2.99774 10.7384 3.0875 10.7289 3.16934 10.6947C3.46313 10.941 3.80807 11.2243 4.24959 11.5364C4.22842 11.625 4.23364 11.718 4.2646 11.8034C4.29555 11.8888 4.35085 11.9629 4.42352 12.0163C4.49619 12.0698 4.58297 12.1001 4.67292 12.1036C4.76287 12.1071 4.85196 12.0835 4.92896 12.0359C5.24068 12.2563 5.60455 12.5135 5.99769 12.8107C5.9825 12.8972 5.99198 12.9862 6.02502 13.0671C6.05806 13.1481 6.11328 13.2178 6.18421 13.2679C6.25514 13.3181 6.33883 13.3466 6.42546 13.3502C6.51209 13.3538 6.59806 13.3323 6.67328 13.2883C7.0105 13.5267 7.37059 13.7619 7.75995 14.0372C7.73947 14.1248 7.74537 14.2166 7.7769 14.3005C7.80844 14.3845 7.86416 14.4569 7.93687 14.5083C8.00958 14.5597 8.09595 14.5878 8.18484 14.5889C8.27372 14.5901 8.36105 14.5642 8.43554 14.5148L9.52599 15.2856C9.50901 15.3725 9.51729 15.4624 9.54982 15.5444C9.58235 15.6264 9.63773 15.697 9.70926 15.7475C9.78078 15.7981 9.86537 15.8265 9.95276 15.8293C10.0401 15.8321 10.1266 15.8091 10.2016 15.7632C10.5762 16.0345 10.969 16.2794 11.3771 16.496C11.3732 16.5876 11.3964 16.6781 11.4439 16.7559C11.4914 16.8337 11.5609 16.8952 11.6435 16.9324C11.7261 16.9696 11.8179 16.9809 11.9071 16.9647C11.9963 16.9486 12.0788 16.9057 12.144 16.8418C12.574 17.0164 13.0165 17.1581 13.4678 17.2656C13.4821 17.3573 13.5235 17.4422 13.5867 17.5093C13.6498 17.5763 13.7316 17.6222 13.8214 17.641C13.9111 17.6598 14.0045 17.6505 14.0892 17.6144C14.1739 17.5783 14.2458 17.517 14.2956 17.4388C14.7427 17.5191 15.194 17.5748 15.6474 17.6054C15.6764 17.6902 15.7294 17.7643 15.7998 17.8186C15.8702 17.8729 15.9549 17.905 16.0435 17.9108C16.132 17.9167 16.2204 17.8961 16.2977 17.8517C16.375 17.8072 16.4378 17.7408 16.4783 17.6607C16.9359 17.6703 17.3973 17.6783 17.8473 17.6667C17.8835 17.747 17.9424 17.8145 18.0167 17.8607C18.091 17.9068 18.1772 17.9296 18.2645 17.9261C18.3518 17.9226 18.4363 17.893 18.5072 17.8411C18.5781 17.7891 18.6323 17.7171 18.663 17.6341C21.5852 17.5161 22.1865 14.9194 20.1403 14.1602C16.24 12.6996 15.3247 10.1669 13.4952 6.69339C13.1215 5.97685 11.6439 6.93635 11.6018 8.28201C9.99161 9.12762 6.88412 6.30058 7.49985 5.51995C7.75167 5.2496 7.89247 4.89264 7.89347 4.52201C7.89448 4.15138 7.75562 3.79506 7.50526 3.52586C7.25491 3.25666 6.91196 3.09489 6.54649 3.07362C6.18103 3.05234 5.82062 3.17317 5.53893 3.4114C4.00995 4.90159 2.76059 6.6599 1.85205 8.60019C1.71139 8.99518 2.33318 9.82835 2.56728 10.1122ZM6.13375 4.08786C6.57034 3.70921 7.40746 4.2028 6.78597 4.96182C5.34902 6.81352 10.0903 10.6412 12.3217 8.89875C12.7214 8.57206 12.2628 7.89458 12.8761 7.4839C13.2802 8.24124 13.6245 8.9168 13.9533 9.50254L13.2723 9.62599C13.1545 9.64734 13.0497 9.71514 12.9809 9.81447C12.9121 9.9138 12.8849 10.0365 12.9054 10.1556C12.926 10.2748 12.9924 10.3805 13.0902 10.4497C13.188 10.5188 13.3091 10.5456 13.4269 10.5243L14.4445 10.3398C14.5758 10.5702 14.7059 10.7999 14.8332 11.0073L14.2144 11.1195C14.0966 11.1409 13.9917 11.2087 13.9229 11.308C13.8542 11.4073 13.827 11.53 13.8475 11.6492C13.868 11.7683 13.9345 11.874 14.0323 11.9432C14.1301 12.0123 14.2512 12.0392 14.369 12.0178L15.3826 11.8341C16.8759 14.1468 19.6084 14.9195 20.3057 15.3931C17.7507 15.7873 13.9386 15.3709 11.7837 13.8502C9.91079 12.5131 4.29551 8.91787 3.55794 7.27612C4.29584 6.11931 5.1599 5.04979 6.13375 4.08786ZM3.02886 8.17587C4.17354 9.92394 9.21623 13.1196 11.2685 14.5704C13.7878 16.3513 17.2436 16.5544 20.2093 16.2937C18.3784 17.3172 13.0021 16.9548 10.8854 15.1236C8.98889 13.7856 3.39847 10.2106 2.76142 8.73897C2.83989 8.54631 2.92918 8.3583 3.02886 8.17587Z" fill="#D4D4D8"/>
</g>
</g>
</svg>
